<?xml version="1.0" encoding="utf-8"?> <svg version="1.1" id="Layer_1" xmlns="http://www.w3.org/2000/svg" xmlns:xlink="http://www.w3.org/1999/xlink" x="0px" y="0px" viewBox="0 0 800 800" style="enable-background:new 0 0 800 800;" xml:space="preserve"> <g> <path style="fill:#006699;" d="M775.2,225c0,13.8-11.2,25-25,25c0,0-0.2,0-0.5,0h-700c-9,0-17.2-4.7-21.7-12.5 c-4.2-7.8-4.2-17.2,0-25l100-175c4.5-7.7,12.8-12.5,21.8-12.5h500c9,0,17.2,4.8,21.8,12.5l97.8,171.3 C773,213.2,775.2,218.8,775.2,225z"/> </g> <g> <path style="fill:#0066CC;" d="M774.8,225v525c0,13.8-11.2,25-25,25h-700c-13.7,0-25-11.2-25-25V225H774.8z"/> </g> <g> <rect x="375" y="25" style="fill:#0099FF;" width="50" height="200"/> </g> <g> <path style="fill:#0099FF;" d="M526.6,675H273.4c-13.8,0-25-11.2-25-25s11.2-25,25-25h253.1c13.8,0,25,11.2,25,25 S540.4,675,526.6,675z"/> </g> </svg>