<?xml version="1.0" encoding="utf-8"?>
<!-- Generator: Adobe Illustrator 27.2.0, SVG Export Plug-In . SVG Version: 6.00 Build 0)  -->
<svg version="1.1" id="Layer_1" xmlns="http://www.w3.org/2000/svg" xmlns:xlink="http://www.w3.org/1999/xlink" x="0px" y="0px"
	 viewBox="0 0 595.3 512" style="enable-background:new 0 0 595.3 512;" xml:space="preserve">
<path style="fill:#027ACD;" d="M196.1,441.2c-4.9,1.2-9.2,1.4-12.3,1.4c-13-0.4-23-5.7-31.4-14.4c-6.5-6.7-9.4-15.3-11.6-24.1
	c-0.1-1.3-0.2-2.7-0.2-4c0-81.7,0-163.4,0.4-245.8c0.9-4.8,1-9,2-12.9c2.4-9.5,6-18.2,10.9-26.1c2.3-3.7,9.5-14.8,23-24.9
	c17.4-13.1,34.7-16.6,43.8-18.4c23.6-4.5,45.9-1.2,45.9,0.2c0,0.5-2.8,1-5.3,1.3c-4.2,0.7-10.7,2.5-17.1,7.2
	c-2.7,2-6.8,5.1-9.7,10.6c-2.3,4.3-3,8.6-3.3,10.2c-0.3,1.6-0.4,3-0.5,5.6c-0.3,7.3,0,13,0,13.7c0.1,1.6,0,0.4,0,18.3
	c0,17.5,0.1,41.5,0.1,43.5c0,8.5,0,164.6-0.2,214.8c0,10-2.5,18.7-7.5,25.9c-6.3,9.2-16.6,14-17.8,14.6
	C201.1,439.9,197.4,440.9,196.1,441.2z"/>
<path style="fill:#027ACD;" d="M370.7,442.8c-9.3,0.1-18.7,0.1-28.6-0.2c-1.5-0.5-2.4-0.7-3-1.1c15.5-3.3,28.6-17.3,28.6-36.4
	c-0.1-30.1-0.6-60.2-0.9-90.7c0-64.2,0-128,0.1-191.7c0-4.8,0.1-9.6,1.1-14.3c2-10.2,7.1-18.7,15.1-25.6c10.2-8.8,22.3-11,35-9.7
	c11.3,1.1,18.7,6.6,22.5,9.2c4.6,3.2,6.9,6,7.6,6.9c3.4,4.2,4.9,8.4,6.1,11.7c1,2.7,1.9,6.1,2.5,10.2c0,2.3,0.1,4.7,0.1,7
	c0,80.7,0,161.3-0.4,242.7c-0.5,2.9-0.3,5.1-0.7,7.2c-4.1,20.4-13.2,37.9-29,51.9c-11.2,9.9-23.8,16.6-38.1,20.1
	C382.5,441.3,376.5,441.9,370.7,442.8z"/>
<path style="fill:#005C90;" d="M366.6,314.9c0.4,30.1,0.9,60.2,1,90.3c0.1,19.1-13.1,33.1-29,36.5c-17.5-2.3-29.7-11.6-35.7-27.2
	c-6.3-16.4-10.9-33.3-16.1-50.1c-9.7-31.5-19.2-63-28.8-94.6c-5.9-19.3-11.6-38.6-17.5-57.9c-3.1-10-6.5-19.8-9.8-29.7
	c0-25.6-0.2-51.2-0.1-76.8c0.1-15.6,13.9-29.8,31-32c1.8-0.6,2.9-0.9,4-1.2c1.4,0,2.8-0.1,4.9,0.3c14.9,2.1,23,11.6,27.7,23.6
	c5.7,14.5,9.8,29.6,14.4,44.5c10.1,32.6,20,65.3,30,97.9c4.7,15.5,9.3,31.1,14.2,46.7C359.9,295.1,363.3,305,366.6,314.9z"/>
</svg>
