<?xml version="1.0" encoding="utf-8"?> <svg version="1.1" id="Layer_2_00000165224289323896173910000002039868675062489485_" xmlns="http://www.w3.org/2000/svg" xmlns:xlink="http://www.w3.org/1999/xlink" x="0px" y="0px" viewBox="0 0 733 733" style="enable-background:new 0 0 733 733;" xml:space="preserve"> <g> <path style="fill:#FFFFFF;" d="M729,391.5v175c0,13.7-11.2,25-25,25H454c-13.7,0-25-11.3-25-25v-300c0-13.8,11.3-25,25-25h150 c7.5,0,14.8,3.5,19.5,9.5l100,124.7c1.2,1.8,2.5,3.8,3.5,5.8c0,0.2,0,0.2,0,0.2s0,0,0,0.2C728.5,385,729,388.3,729,391.5z"/> <path style="fill:#FFFFFF;" d="M679,566.5c0,41.2-33.8,75-75,75s-75-33.8-75-75s33.8-75,75-75S679,525.3,679,566.5z"/> <path style="fill:#FFFFFF;" d="M254,566.5c0,41.2-33.8,75-75,75s-75-33.8-75-75s33.8-75,75-75S254,525.3,254,566.5z"/> <g> <path style="fill:#FFFFFF;" d="M180.5,152.6c0,0.4,0,0.8-0.1,1.2c-0.3,7.3,0,13,0,13.7c0,0.1,0,0.2,0,0.3 C180.5,162.8,180.5,157.7,180.5,152.6z"/> <path style="fill:#FFFFFF;" d="M184.2,138c-0.7,1.3-1.2,2.6-1.7,3.8c1.8-4.4,4.6-8.4,8.1-11.7C188.5,131.9,186.1,134.4,184.2,138z "/> <path style="fill:#FFFFFF;" d="M479,91.5H29c-13.8,0-25,11.2-25,25v450c0,13.8,11.2,25,25,25h100h100h250h25v-25v-450 C504,102.7,492.8,91.5,479,91.5z M406,407.5c-0.5,2.9-0.3,5.1-0.7,7.2c-4.1,20.4-13.2,37.9-29,51.9c-11.2,9.9-23.8,16.6-38.1,20.1 c-5.8,1.4-11.8,2-17.7,2.9c-9.3,0.1-18.7,0.1-28.6-0.2c-1.5-0.5-2.4-0.7-3-1.1c15-3.2,27.8-16.5,28.5-34.7 c-0.7,18.2-13.5,31.5-28.9,34.7c-17.5-2.3-29.7-11.6-35.7-27.2c-6.3-16.4-10.9-33.3-16.1-50.1c-9.7-31.5-19.2-63-28.8-94.6 c-5.9-19.3-11.6-38.6-17.5-57.9c-3.1-10-6.5-19.8-9.8-29.7c0-17.8-0.1-35.5-0.1-53.3c0,2.4,0,5.7,0,10.3c0,17.5,0.1,41.5,0.1,43.5 c0,8.5,0,164.6-0.2,214.8c0,10-2.5,18.7-7.5,25.9c-6.3,9.2-16.6,14-17.8,14.6c-4.2,2-7.9,3-9.2,3.3c-4.9,1.2-9.2,1.4-12.3,1.4 c-13-0.4-23-5.7-31.4-14.4c-6.5-6.7-9.4-15.3-11.6-24.1c-0.1-1.3-0.2-2.7-0.2-4c0-81.7,0-163.4,0.4-245.8c0.9-4.8,1-9,2-12.9 c2.4-9.5,6-18.2,10.9-26.1c2.3-3.7,9.5-14.8,23-24.9c17.4-13.1,34.7-16.6,43.8-18.4c23.6-4.5,45.9-1.2,45.9,0.2l0,0 c1.1,0,2.3,0,3.9,0.3c14.9,2.1,23,11.6,27.7,23.6c5.7,14.5,9.8,29.6,14.4,44.5c10.1,32.6,20,65.3,30,97.9 c4.7,15.5,9.3,31.1,14.2,46.7c3.1,10,6.5,19.8,9.8,29.7c0.4,30.1,0.9,60.2,1,90.3c-0.1-30.1-0.6-60.2-0.9-90.7 c0-64.2,0-128,0.1-191.7c0-4.8,0.1-9.6,1.1-14.3c2-10.2,7.1-18.7,15.1-25.6c10.2-8.8,22.3-11,35-9.7c11.3,1.1,18.7,6.6,22.5,9.2 c4.6,3.2,6.9,6,7.6,6.9c3.4,4.2,4.9,8.4,6.1,11.7c1,2.7,1.9,6.1,2.5,10.2c0,2.3,0.1,4.7,0.1,7C406.5,245.5,406.5,326.1,406,407.5z "/> </g> </g> </svg>