<?xml version="1.0" encoding="UTF-8"?><svg id="uuid-8a9a21ff-96b3-48b6-9ac0-5bacbc14bd9c" xmlns="http://www.w3.org/2000/svg" viewBox="0 0 750 550"><path d="m575,25v150c0,13.75-11.25,25-25,25h-150c-13.75,0-25-11.25-25-25V25c0-13.75,11.25-25,25-25h150c13.75,0,25,11.25,25,25Z" style="fill:#ff9;"/><path d="m650,175v175c0,13.75-11.25,25-25,25h-300c-13.75,0-25-11.25-25-25v-175c0-13.75,11.25-25,25-25h300c13.75,0,25,11.25,25,25Z" style="fill:#fc6;"/><path d="m725,475c0,41.25-33.75,75-75,75s-75-33.75-75-75,33.75-75,75-75,75,33.75,75,75Z" style="fill:#06c;"/><path d="m375,475c0,41.25-33.75,75-75,75s-75-33.75-75-75,33.75-75,75-75,75,33.75,75,75Z" style="fill:#06c;"/><path d="m725,375H200c-11.65,0-21.75-8.03-24.36-19.39L105.1,50H25C11.18,50,0,38.82,0,25S11.18,0,25,0h100c11.64,0,21.75,8.03,24.36,19.39l70.53,305.61h505.1c13.82,0,25,11.18,25,25s-11.18,25-25,25Z" style="fill:#06c;"/><path d="m500,0v75c0,13.75-11.25,25-25,25s-25-11.25-25-25V0h50Z" style="fill:#09f;"/><path d="m500,150v75c0,13.75-11.25,25-25,25s-25-11.25-25-25v-75h50Z" style="fill:#09f;"/></svg>