<?xml version="1.0" encoding="utf-8"?> <svg version="1.1" id="_x34_" xmlns="http://www.w3.org/2000/svg" xmlns:xlink="http://www.w3.org/1999/xlink" x="0px" y="0px" viewBox="0 0 822 822" style="enable-background:new 0 0 822 822;" xml:space="preserve"> <path style="fill:#FF3333;" d="M429.5,2.8v50.1L390.6,2.8h-17.1v81.8h19.1V34.4l38.9,50.2h17.1V2.8H429.5z"/> <g> <path style="fill:#E9E8E8;" d="M501.9,460.6l-90.4,341.7c-5.1,19.2-13.4,19.2-18.5,0l-90.4-341.7L501.9,460.6z"/> <path style="fill:#FF3333;" d="M489.1,407.5l-77.6-293.4c-5.1-19.2-13.4-19.2-18.5,0l-77.6,293.4l-12.8,48.3 c0,54.4,44.6,98.5,99.6,98.5c55,0,99.7-44.1,99.7-98.5L489.1,407.5z"/> <path style="opacity:7.000000e-02;fill:#040000;enable-background:new    ;" d="M410.5,114.1l-77.6,293.4l-12.8,48.3 c0,1.6,0.2,3.2,0.2,4.8h-0.2l0.3,1.2c0.8,13.2,4.2,25.7,9.8,37l80.3,303.5c5.1,19.2,13.4,19.2,18.5,0l80.3-303.5 c5.6-11.3,9-23.8,9.8-37l0.3-1.2l-0.2,0c0.1-1.6,0.2-3.2,0.2-4.8l-12.8-48.3L429,114.1C423.9,94.9,415.6,94.9,410.5,114.1z"/> <path style="opacity:0.5;fill:#040000;enable-background:new    ;" d="M426.5,463.4c0,13.4-10.9,24.3-24.3,24.3c-0.1,0-0.2,0-0.4,0 c-0.7,0-1.4,0-2.1-0.1c0,0,0,0-0.1,0c-12.2-1.3-21.7-11.6-21.7-24.1c0-2.4,0.4-4.8,1-7c0.7-2.2,1.6-4.3,2.8-6.1 c4.3-6.7,11.9-11.2,20.4-11.2C415.6,439.1,426.5,450,426.5,463.4z"/> </g> </svg>