<?xml version="1.0" encoding="utf-8"?> <svg version="1.1" id="Layer_1" xmlns="http://www.w3.org/2000/svg" xmlns:xlink="http://www.w3.org/1999/xlink" x="0px" y="0px" viewBox="0 0 315.9 316" style="enable-background:new 0 0 315.9 316;" xml:space="preserve"> <path style="fill:#32BCAD;" d="M246.3,241.7c-12.3,0-24.1-4.8-32.8-13.5l-47.4-47.4c-3.5-3.3-9-3.3-12.4,0l-47.5,47.5 c-8.7,8.7-20.5,13.6-32.8,13.6h-9.3l60,60c18.7,18.7,49.1,18.7,67.8,0l60.1-60.1L246.3,241.7z"/> <path style="fill:#32BCAD;" d="M73.4,74.2c12.3,0,24.1,4.9,32.8,13.6l47.5,47.5c3.4,3.4,9,3.4,12.4,0L213.5,88 c8.7-8.7,20.5-13.6,32.8-13.6h5.7l-60.1-60.1c-18.7-18.7-49.1-18.7-67.8,0c0,0,0,0,0,0L64.2,74.2H73.4z"/> <path style="fill:#32BCAD;" d="M301.7,124.1l-36.3-36.3c-0.8,0.3-1.7,0.5-2.6,0.5h-16.5c-8.6,0-16.8,3.4-22.9,9.5L176,145.1 c-8.9,8.9-23.3,8.9-32.1,0L96.4,97.6c-6.1-6.1-14.3-9.5-22.9-9.5H53.2c-0.8,0-1.7-0.2-2.4-0.5l-36.6,36.5 c-18.7,18.7-18.7,49.1,0,67.8l36.5,36.5c0.8-0.3,1.6-0.5,2.4-0.5h20.4c8.6,0,16.8-3.4,22.9-9.5l47.5-47.5c8.6-8.6,23.6-8.6,32.1,0 l47.3,47.3c6.1,6.1,14.3,9.5,22.9,9.5h16.5c0.9,0,1.8,0.2,2.6,0.5l36.3-36.3C320.5,173.2,320.5,142.9,301.7,124.1 C301.7,124.1,301.7,124.1,301.7,124.1"/> </svg>